<svg id="visual" viewBox="0 0 900 600" width="900" height="600" xmlns="http://www.w3.org/2000/svg" xmlns:xlink="http://www.w3.org/1999/xlink" version="1.1"><rect x="0" y="0" width="900" height="600" fill="#FFF"></rect><path d="M0 437L25 442.5C50 448 100 459 150 440.2C200 421.3 250 372.7 300 376.5C350 380.3 400 436.7 450 461.5C500 486.3 550 479.7 600 464.3C650 449 700 425 750 413.8C800 402.7 850 404.3 875 405.2L900 406L900 601L875 601C850 601 800 601 750 601C700 601 650 601 600 601C550 601 500 601 450 601C400 601 350 601 300 601C250 601 200 601 150 601C100 601 50 601 25 601L0 601Z" fill="#FFFBED" stroke-linecap="round" stroke-linejoin="miter"></path></svg>